<svg width="1134" height="875" viewBox="0 0 1134 875" fill="none" xmlns="http://www.w3.org/2000/svg">
<path fill-rule="evenodd" clip-rule="evenodd" d="M554.5 3.34936C562.235 -1.11646 571.765 -1.11645 579.5 3.34937L936.63 209.538C944.365 214.004 949.13 222.257 949.13 231.189V327.066H780.007V266.3C780.007 254.6 775.89 245.066 767.657 237.7C759.423 230.333 750.107 226.65 739.707 226.65C726.707 226.65 716.09 232.5 707.857 244.2L652.389 327.066H474.398L420.557 244.2C417.09 239 411.89 234.883 404.957 231.85C398.457 228.383 392.173 226.65 386.107 226.65C374.84 226.65 365.09 230.55 356.857 238.35C349.057 246.15 345.157 255.466 345.157 266.3V327.066H184.871V231.189C184.871 222.257 189.636 214.004 197.371 209.538L554.5 3.34936ZM345.157 547.689V642.65C345.157 653.916 348.623 663.45 355.557 671.25C362.49 678.616 371.373 682.3 382.207 682.3C393.473 682.3 402.573 678.616 409.507 671.25C416.44 663.45 419.907 653.916 419.907 642.65V547.689H529.988C533.298 551.128 537.12 554.181 541.457 556.85C547.523 560.316 553.373 561.833 559.007 561.4C565.073 561.833 570.923 560.316 576.557 556.85C581.226 554.181 585.254 551.128 588.64 547.689H698.757V642.65C698.757 653.916 702.44 663.45 709.807 671.25C717.607 678.616 727.573 682.3 739.707 682.3C751.84 682.3 761.59 678.616 768.957 671.25C776.323 663.45 780.007 653.916 780.007 642.65V547.689H949.13V643.566C949.13 652.498 944.365 660.751 936.63 665.217L579.5 871.406C571.765 875.872 562.235 875.872 554.5 871.406L197.371 665.217C189.636 660.751 184.871 652.498 184.871 643.566V547.689H345.157Z" fill="#EE3162"/>
<path d="M120.085 365.465C122.138 365.465 124.265 366.052 126.465 367.225C128.811 368.252 130.571 369.645 131.745 371.405L185.205 453.685L174.205 453.245L228.985 371.405C231.771 367.445 235.365 365.465 239.765 365.465C243.285 365.465 246.438 366.712 249.225 369.205C252.011 371.698 253.405 374.925 253.405 378.885V506.265C253.405 510.078 252.158 513.305 249.665 515.945C247.171 518.438 243.871 519.685 239.765 519.685C235.658 519.685 232.285 518.438 229.645 515.945C227.151 513.305 225.905 510.078 225.905 506.265V402.645L234.485 404.625L189.605 473.045C188.285 474.658 186.598 476.052 184.545 477.225C182.638 478.398 180.658 478.912 178.605 478.765C176.698 478.912 174.718 478.398 172.665 477.225C170.758 476.052 169.145 474.658 167.825 473.045L125.805 406.605L131.525 394.945V506.265C131.525 510.078 130.351 513.305 128.005 515.945C125.658 518.438 122.578 519.685 118.765 519.685C115.098 519.685 112.091 518.438 109.745 515.945C107.398 513.305 106.225 510.078 106.225 506.265V378.885C106.225 375.218 107.545 372.065 110.185 369.425C112.971 366.785 116.271 365.465 120.085 365.465ZM398.459 460.945C398.459 472.972 395.745 483.605 390.319 492.845C385.039 501.938 377.852 509.052 368.759 514.185C359.812 519.318 349.765 521.885 338.619 521.885C327.472 521.885 317.352 519.318 308.259 514.185C299.312 509.052 292.125 501.938 286.699 492.845C281.419 483.605 278.779 472.972 278.779 460.945C278.779 448.918 281.419 438.358 286.699 429.265C292.125 420.025 299.312 412.838 308.259 407.705C317.352 402.425 327.472 399.785 338.619 399.785C349.765 399.785 359.812 402.425 368.759 407.705C377.852 412.838 385.039 420.025 390.319 429.265C395.745 438.358 398.459 448.918 398.459 460.945ZM372.059 460.945C372.059 453.465 370.519 447.012 367.439 441.585C364.505 436.012 360.472 431.685 355.339 428.605C350.352 425.525 344.779 423.985 338.619 423.985C332.459 423.985 326.812 425.525 321.679 428.605C316.692 431.685 312.659 436.012 309.579 441.585C306.645 447.012 305.179 453.465 305.179 460.945C305.179 468.278 306.645 474.732 309.579 480.305C312.659 485.732 316.692 489.985 321.679 493.065C326.812 496.145 332.459 497.685 338.619 497.685C344.779 497.685 350.352 496.145 355.339 493.065C360.472 489.985 364.505 485.732 367.439 480.305C370.519 474.732 372.059 468.278 372.059 460.945ZM484.484 399.785C495.337 399.785 503.55 402.058 509.124 406.605C514.844 411.152 518.73 417.238 520.784 424.865C522.984 432.345 524.084 440.705 524.084 449.945V506.265C524.084 510.078 522.837 513.305 520.344 515.945C517.85 518.438 514.697 519.685 510.884 519.685C507.07 519.685 503.917 518.438 501.424 515.945C498.93 513.305 497.684 510.078 497.684 506.265V449.945C497.684 445.105 497.024 440.778 495.704 436.965C494.53 433.005 492.33 429.852 489.104 427.505C485.877 425.158 481.257 423.985 475.244 423.985C469.377 423.985 464.39 425.158 460.284 427.505C456.324 429.852 453.244 433.005 451.044 436.965C448.99 440.778 447.964 445.105 447.964 449.945V506.265C447.964 510.078 446.717 513.305 444.224 515.945C441.73 518.438 438.577 519.685 434.764 519.685C430.95 519.685 427.797 518.438 425.304 515.945C422.81 513.305 421.564 510.078 421.564 506.265V415.405C421.564 411.592 422.81 408.438 425.304 405.945C427.797 403.305 430.95 401.985 434.764 401.985C438.577 401.985 441.73 403.305 444.224 405.945C446.717 408.438 447.964 411.592 447.964 415.405V424.865L444.664 424.205C445.984 421.712 447.89 419.072 450.384 416.285C452.877 413.352 455.81 410.638 459.184 408.145C462.557 405.652 466.37 403.672 470.624 402.205C474.877 400.592 479.497 399.785 484.484 399.785ZM545.798 501.425C544.332 499.372 543.672 496.732 543.818 493.505C543.965 490.278 545.872 487.492 549.538 485.145C551.885 483.678 554.378 483.092 557.018 483.385C559.658 483.532 562.225 484.852 564.718 487.345C568.972 491.598 573.445 494.898 578.138 497.245C582.832 499.592 588.698 500.765 595.738 500.765C597.938 500.618 600.358 500.325 602.998 499.885C605.638 499.298 607.912 498.125 609.818 496.365C611.872 494.458 612.898 491.598 612.898 487.785C612.898 484.558 611.798 481.992 609.598 480.085C607.398 478.178 604.465 476.565 600.798 475.245C597.278 473.925 593.318 472.678 588.918 471.505C584.372 470.185 579.678 468.718 574.838 467.105C570.145 465.492 565.818 463.438 561.858 460.945C557.898 458.305 554.672 454.858 552.178 450.605C549.685 446.352 548.438 440.998 548.438 434.545C548.438 427.212 550.492 420.978 554.598 415.845C558.705 410.712 563.985 406.752 570.438 403.965C577.038 401.178 583.932 399.785 591.118 399.785C595.665 399.785 600.432 400.372 605.418 401.545C610.405 402.572 615.172 404.332 619.718 406.825C624.265 409.172 628.078 412.325 631.158 416.285C632.772 418.485 633.725 421.125 634.018 424.205C634.312 427.285 632.918 430.072 629.838 432.565C627.638 434.325 625.072 435.132 622.138 434.985C619.205 434.692 616.785 433.665 614.878 431.905C612.385 428.678 609.012 426.112 604.758 424.205C600.652 422.298 595.885 421.345 590.458 421.345C588.258 421.345 585.838 421.638 583.198 422.225C580.705 422.665 578.505 423.765 576.598 425.525C574.692 427.138 573.738 429.778 573.738 433.445C573.738 436.818 574.838 439.532 577.038 441.585C579.238 443.492 582.172 445.105 585.838 446.425C589.652 447.598 593.685 448.772 597.938 449.945C602.338 451.118 606.812 452.512 611.358 454.125C615.905 455.738 620.085 457.865 623.898 460.505C627.712 463.145 630.792 466.592 633.138 470.845C635.485 474.952 636.658 480.232 636.658 486.685C636.658 494.165 634.458 500.545 630.058 505.825C625.658 511.105 620.158 515.138 613.558 517.925C606.958 520.565 600.212 521.885 593.318 521.885C584.665 521.885 576.012 520.418 567.358 517.485C558.705 514.405 551.518 509.052 545.798 501.425ZM745.871 493.945C749.685 493.945 752.838 495.192 755.331 497.685C757.971 500.032 759.291 503.112 759.291 506.925C759.291 510.592 757.971 513.672 755.331 516.165C752.838 518.512 749.685 519.685 745.871 519.685H674.371C670.558 519.685 667.331 518.438 664.691 515.945C662.198 513.305 660.951 510.078 660.951 506.265V379.105C660.951 375.292 662.271 372.138 664.911 369.645C667.551 367.005 670.925 365.685 675.031 365.685C678.551 365.685 681.631 367.005 684.271 369.645C687.058 372.138 688.451 375.292 688.451 379.105V497.685L683.611 493.945H745.871ZM878.646 399.785C882.46 399.785 885.613 401.032 888.106 403.525C890.6 406.018 891.846 409.245 891.846 413.205V506.265C891.846 510.078 890.6 513.305 888.106 515.945C885.613 518.438 882.46 519.685 878.646 519.685C874.833 519.685 871.68 518.438 869.186 515.945C866.693 513.305 865.446 510.078 865.446 506.265V495.485L870.286 497.465C870.286 499.372 869.26 501.718 867.206 504.505C865.153 507.145 862.366 509.785 858.846 512.425C855.326 515.065 851.146 517.338 846.306 519.245C841.613 521.005 836.48 521.885 830.906 521.885C820.786 521.885 811.62 519.318 803.406 514.185C795.193 508.905 788.666 501.718 783.826 492.625C779.133 483.385 776.786 472.825 776.786 460.945C776.786 448.918 779.133 438.358 783.826 429.265C788.666 420.025 795.12 412.838 803.186 407.705C811.253 402.425 820.2 399.785 830.026 399.785C836.333 399.785 842.126 400.738 847.406 402.645C852.686 404.552 857.233 406.972 861.046 409.905C865.006 412.838 868.013 415.845 870.066 418.925C872.266 421.858 873.366 424.352 873.366 426.405L865.446 429.265V413.205C865.446 409.392 866.693 406.238 869.186 403.745C871.68 401.105 874.833 399.785 878.646 399.785ZM834.206 497.685C840.66 497.685 846.306 496.072 851.146 492.845C855.986 489.618 859.726 485.218 862.366 479.645C865.153 474.072 866.546 467.838 866.546 460.945C866.546 453.905 865.153 447.598 862.366 442.025C859.726 436.452 855.986 432.052 851.146 428.825C846.306 425.598 840.66 423.985 834.206 423.985C827.9 423.985 822.326 425.598 817.486 428.825C812.646 432.052 808.833 436.452 806.046 442.025C803.406 447.598 802.086 453.905 802.086 460.945C802.086 467.838 803.406 474.072 806.046 479.645C808.833 485.218 812.646 489.618 817.486 492.845C822.326 496.072 827.9 497.685 834.206 497.685ZM981.371 399.785C991.638 399.785 1000.8 402.425 1008.87 407.705C1017.08 412.838 1023.54 419.952 1028.23 429.045C1033.07 438.138 1035.49 448.698 1035.49 460.725C1035.49 472.752 1033.07 483.385 1028.23 492.625C1023.54 501.718 1017.16 508.905 1009.09 514.185C1001.17 519.318 992.224 521.885 982.251 521.885C976.384 521.885 970.884 520.932 965.751 519.025C960.618 517.118 956.071 514.698 952.111 511.765C948.298 508.832 945.291 505.898 943.091 502.965C941.038 499.885 940.011 497.318 940.011 495.265L946.831 492.405V508.465C946.831 512.278 945.584 515.505 943.091 518.145C940.598 520.638 937.444 521.885 933.631 521.885C929.818 521.885 926.664 520.638 924.171 518.145C921.678 515.652 920.431 512.425 920.431 508.465V370.305C920.431 366.492 921.678 363.338 924.171 360.845C926.664 358.205 929.818 356.885 933.631 356.885C937.444 356.885 940.598 358.205 943.091 360.845C945.584 363.338 946.831 366.492 946.831 370.305V426.185L943.091 424.205C943.091 422.298 944.118 420.025 946.171 417.385C948.224 414.598 951.011 411.885 954.531 409.245C958.051 406.458 962.084 404.185 966.631 402.425C971.324 400.665 976.238 399.785 981.371 399.785ZM978.071 423.985C971.618 423.985 965.971 425.598 961.131 428.825C956.291 432.052 952.478 436.452 949.691 442.025C947.051 447.452 945.731 453.685 945.731 460.725C945.731 467.618 947.051 473.925 949.691 479.645C952.478 485.218 956.291 489.618 961.131 492.845C965.971 496.072 971.618 497.685 978.071 497.685C984.524 497.685 990.098 496.072 994.791 492.845C999.631 489.618 1003.37 485.218 1006.01 479.645C1008.8 473.925 1010.19 467.618 1010.19 460.725C1010.19 453.685 1008.8 447.452 1006.01 442.025C1003.37 436.452 999.631 432.052 994.791 428.825C990.098 425.598 984.524 423.985 978.071 423.985Z" fill="#F1EFDB"/>
</svg>